<svg id="Capa_1" enable-background="new 0 0 512 512" height="24" viewBox="0 0 512 512" width="24" xmlns="http://www.w3.org/2000/svg"><g><path d="m256 151c-24.813 0-45 20.187-45 45s20.187 45 45 45 45-20.187 45-45-20.187-45-45-45zm0 60c-8.271 0-15-6.729-15-15s6.729-15 15-15 15 6.729 15 15-6.729 15-15 15z"/><path d="m155 361h-25v-25c0-8.284-6.716-15-15-15s-15 6.716-15 15v25h-25c-8.284 0-15 6.716-15 15s6.716 15 15 15h25v25c0 8.284 6.716 15 15 15s15-6.716 15-15v-25h25c8.284 0 15-6.716 15-15s-6.716-15-15-15z"/><path d="m509.437 187.613c-1.142-1.693-28.477-41.938-72.885-82.668-26.29-24.112-53.146-43.375-79.821-57.252-34.046-17.713-67.937-26.693-100.731-26.693s-66.685 8.98-100.731 26.693c-26.675 13.877-53.531 33.14-79.821 57.252-44.408 40.731-71.742 80.975-72.885 82.668-3.418 5.069-3.418 11.705 0 16.773 1.047 1.554 22.964 33.81 59.249 69.677-36.706 19.231-61.812 57.704-61.812 101.937 0 63.411 51.589 115 115 115s115-51.589 115-115c0-2.317-.077-4.617-.213-6.901 8.816 1.249 17.58 1.901 26.213 1.901 32.794 0 66.685-8.98 100.731-26.693 26.675-13.877 53.531-33.14 79.821-57.252 44.408-40.73 71.743-80.975 72.885-82.668 3.417-5.069 3.417-11.705 0-16.774zm-415.72 45.756c-24.435-13.95-43.61-28.025-55.39-37.369 11.782-9.346 30.956-23.42 55.39-37.369 18.912-10.798 43.01-22.623 70.464-31.79-14.544 19.26-23.181 43.219-23.181 69.159s8.637 49.899 23.181 69.16c-27.454-9.168-51.552-20.993-70.464-31.791zm77.283-37.369c0-46.869 38.131-85 85-85s85 38.131 85 85-38.131 85-85 85-85-38.131-85-85zm176.819-69.16c27.454 9.168 51.552 20.993 70.464 31.79 24.435 13.95 43.61 28.025 55.39 37.369-11.782 9.346-30.956 23.42-55.39 37.369-18.912 10.798-43.01 22.623-70.464 31.79 14.544-19.259 23.181-43.218 23.181-69.158s-8.637-49.899-23.181-69.16zm-91.819-75.84c58.938 0 113.264 35.166 150.937 67.738-40.051-19.479-93.029-37.738-150.937-37.738-57.848 0-110.776 18.222-150.812 37.678 40.526-35.117 93.536-67.678 150.812-67.678zm-141 410c-46.869 0-85-38.131-85-85s38.131-85 85-85 85 38.131 85 85-38.131 85-85 85zm141-120c-10.659 0-21.599-1.172-32.62-3.452-3.971-11.16-9.617-21.531-16.639-30.809 15.871 2.689 32.351 4.261 49.259 4.261 57.848 0 110.776-18.222 150.812-37.678-40.525 35.117-93.536 67.678-150.812 67.678z"/></g></svg>